<svg xmlns="http://www.w3.org/2000/svg" width="480" height="740" viewBox="0 0 480 740" role="img" aria-labelledby="title desc">
  <title id="title">ライン川沿いの区間選択（モバイル）</title>
  <desc id="desc">北のKölnからBonn、Königswinter、Linz、Koblenz、St. Goar、南のBacharachへ続くライン川沿いの位置関係。上部は北向きの位置関係、下部は番号順の地点一覧。背景街並みはAI生成の編集イメージで、地点はOpenStreetMapで確認しています。</desc>
  <defs>
    <marker id="route-arrow" viewBox="0 0 10 10" refX="8" refY="5" markerWidth="7" markerHeight="7" orient="auto-start-reverse"><path d="M0 0 10 5 0 10z" fill="#075b9a"/></marker>
    <marker id="optional-arrow" viewBox="0 0 10 10" refX="8" refY="5" markerWidth="7" markerHeight="7" orient="auto-start-reverse"><path d="M0 0 10 5 0 10z" fill="#147d75"/></marker>
    <filter id="card-shadow" x="-15%" y="-20%" width="130%" height="150%"><feDropShadow dx="0" dy="3" stdDeviation="3" flood-color="#12324a" flood-opacity="0.15"/></filter>
    <clipPath id="map-clip"><rect x="1" y="1" width="818" height="518" rx="20"/></clipPath>
    <clipPath id="mobile-map-clip"><path d="M19 1h442a18 18 0 0 1 18 18v299H1V19A18 18 0 0 1 19 1z"/></clipPath>
    <linearGradient id="map-wash" x1="0" y1="0" x2="0" y2="1"><stop offset="0" stop-color="#fffaf0" stop-opacity="0.03"/><stop offset="1" stop-color="#fffaf0" stop-opacity="0.16"/></linearGradient>
  </defs>
  <g clip-path="url(#mobile-map-clip)">
    <image href="/assets/images/living/routes/rhine-river-relax-guide-illustrated-map.webp" x="1" y="1" width="478" height="318" preserveAspectRatio="xMidYMid slice"/>
    <rect x="1" y="1" width="478" height="318" fill="url(#map-wash)"/>
  </g>
  <rect x="1" y="1" width="478" height="738" rx="18" fill="none" stroke="#173f68" stroke-width="2"/>
  <g aria-hidden="true">
    <path d="M52.3 94.1 L116.4 138.5" fill="none" stroke="#fffaf0" stroke-opacity="0.92" stroke-width="12" stroke-linecap="round"/>
    <path d="M52.3 94.1 L116.4 138.5" fill="none" stroke="#075b9a" stroke-width="7" stroke-linecap="round" marker-end="url(#route-arrow)"/>
    <path d="M116.4 138.5 L161 149.8" fill="none" stroke="#fffaf0" stroke-opacity="0.92" stroke-width="12" stroke-linecap="round"/>
    <path d="M116.4 138.5 L161 149.8" fill="none" stroke="#075b9a" stroke-width="7" stroke-linecap="round" marker-end="url(#route-arrow)"/>
    <path d="M161 149.8 L199.1 172.9" fill="none" stroke="#fffaf0" stroke-opacity="0.92" stroke-width="12" stroke-linecap="round"/>
    <path d="M161 149.8 L199.1 172.9" fill="none" stroke="#075b9a" stroke-width="7" stroke-linecap="round" marker-end="url(#route-arrow)"/>
    <path d="M199.1 172.9 L352.1 216.3" fill="none" stroke="#fffaf0" stroke-opacity="0.92" stroke-width="12" stroke-linecap="round"/>
    <path d="M199.1 172.9 L352.1 216.3" fill="none" stroke="#075b9a" stroke-width="7" stroke-linecap="round" marker-end="url(#route-arrow)"/>
    <path d="M352.1 216.3 L402.1 261.9" fill="none" stroke="#fffaf0" stroke-opacity="0.92" stroke-width="12" stroke-linecap="round"/>
    <path d="M352.1 216.3 L402.1 261.9" fill="none" stroke="#075b9a" stroke-width="7" stroke-linecap="round" marker-end="url(#route-arrow)"/>
    <path d="M402.1 261.9 L427.7 281.9" fill="none" stroke="#fffaf0" stroke-opacity="0.92" stroke-width="12" stroke-linecap="round"/>
    <path d="M402.1 261.9 L427.7 281.9" fill="none" stroke="#075b9a" stroke-width="7" stroke-linecap="round" marker-end="url(#route-arrow)"/><g filter="url(#card-shadow)">
      <circle cx="52.3" cy="94.1" r="14" fill="#fffaf0" fill-opacity="0.95"/>
      <circle cx="52.3" cy="94.1" r="11" fill="#092f55"/>
      <text x="52.3" y="98.2" text-anchor="middle" fill="#ffffff" font-family="system-ui, -apple-system, sans-serif" font-size="12" font-weight="900">1</text>
    </g>
<g filter="url(#card-shadow)">
      <circle cx="116.4" cy="138.5" r="14" fill="#fffaf0" fill-opacity="0.95"/>
      <circle cx="116.4" cy="138.5" r="11" fill="#092f55"/>
      <text x="116.4" y="142.5" text-anchor="middle" fill="#ffffff" font-family="system-ui, -apple-system, sans-serif" font-size="12" font-weight="900">2</text>
    </g>
<g filter="url(#card-shadow)">
      <circle cx="161" cy="149.8" r="14" fill="#fffaf0" fill-opacity="0.95"/>
      <circle cx="161" cy="149.8" r="11" fill="#092f55"/>
      <text x="161" y="153.9" text-anchor="middle" fill="#ffffff" font-family="system-ui, -apple-system, sans-serif" font-size="12" font-weight="900">3</text>
    </g>
<g filter="url(#card-shadow)">
      <circle cx="199.1" cy="172.9" r="14" fill="#fffaf0" fill-opacity="0.95"/>
      <circle cx="199.1" cy="172.9" r="11" fill="#092f55"/>
      <text x="199.1" y="177" text-anchor="middle" fill="#ffffff" font-family="system-ui, -apple-system, sans-serif" font-size="12" font-weight="900">4</text>
    </g>
<g filter="url(#card-shadow)">
      <circle cx="352.1" cy="216.3" r="14" fill="#fffaf0" fill-opacity="0.95"/>
      <circle cx="352.1" cy="216.3" r="11" fill="#092f55"/>
      <text x="352.1" y="220.4" text-anchor="middle" fill="#ffffff" font-family="system-ui, -apple-system, sans-serif" font-size="12" font-weight="900">5</text>
    </g>
<g filter="url(#card-shadow)">
      <circle cx="402.1" cy="261.9" r="14" fill="#fffaf0" fill-opacity="0.95"/>
      <circle cx="402.1" cy="261.9" r="11" fill="#092f55"/>
      <text x="402.1" y="266" text-anchor="middle" fill="#ffffff" font-family="system-ui, -apple-system, sans-serif" font-size="12" font-weight="900">6</text>
    </g>
<g filter="url(#card-shadow)">
      <circle cx="427.7" cy="281.9" r="14" fill="#fffaf0" fill-opacity="0.95"/>
      <circle cx="427.7" cy="281.9" r="11" fill="#092f55"/>
      <text x="427.7" y="286" text-anchor="middle" fill="#ffffff" font-family="system-ui, -apple-system, sans-serif" font-size="12" font-weight="900">7</text>
    </g></g>
  <g aria-hidden="true" filter="url(#card-shadow)">
    <rect x="12" y="12" width="400" height="58" rx="11" fill="#fffaf0" fill-opacity="0.96" stroke="#173f68" stroke-width="2"/>
    <text x="25" y="37" fill="#092f55" font-family="system-ui, -apple-system, sans-serif" font-size="18" font-weight="900">ライン川沿いの区間選択</text>
    <text x="26" y="57" fill="#405e72" font-family="system-ui, -apple-system, sans-serif" font-size="10.5" font-weight="800" letter-spacing="1">ILLUSTRATED ROUTE MAP</text>
  </g>
  <g aria-hidden="true">
    <circle cx="442" cy="40" r="22" fill="#fffaf0" fill-opacity="0.94" stroke="#173f68" stroke-width="2"/>
    <path d="M442 23 L436 44 L442 41 L448 44 Z" fill="#092f55"/>
    <text x="442" y="13" text-anchor="middle" fill="#092f55" font-family="system-ui, -apple-system, sans-serif" font-size="14" font-weight="900">N</text>
  </g>
  <rect x="1" y="318" width="478" height="420" fill="#fffaf0" fill-opacity="0.97"/>
  <g aria-hidden="true">
      <circle cx="30" cy="346" r="14" fill="#092f55"/>
      <text x="30" y="351" text-anchor="middle" fill="#fff" font-family="system-ui, -apple-system, sans-serif" font-size="14" font-weight="900">1</text>
      <text x="54" y="344" fill="#092f4e" font-family="system-ui, -apple-system, sans-serif" font-size="15" font-weight="850">Köln</text>
      <text x="54" y="362" fill="#4d6779" font-family="system-ui, -apple-system, sans-serif" font-size="12.5">北側の起点</text>
      <line x1="20" y1="367.6" x2="460" y2="367.6" stroke="#d7c8a7" stroke-width="1"/>
    </g>
<g aria-hidden="true">
      <circle cx="30" cy="395.1" r="14" fill="#092f55"/>
      <text x="30" y="400.1" text-anchor="middle" fill="#fff" font-family="system-ui, -apple-system, sans-serif" font-size="14" font-weight="900">2</text>
      <text x="54" y="393.1" fill="#092f4e" font-family="system-ui, -apple-system, sans-serif" font-size="15" font-weight="850">Bonn</text>
      <text x="54" y="411.1" fill="#4d6779" font-family="system-ui, -apple-system, sans-serif" font-size="12.5">平地の都市散歩</text>
      <line x1="20" y1="416.7" x2="460" y2="416.7" stroke="#d7c8a7" stroke-width="1"/>
    </g>
<g aria-hidden="true">
      <circle cx="30" cy="444.3" r="14" fill="#092f55"/>
      <text x="30" y="449.3" text-anchor="middle" fill="#fff" font-family="system-ui, -apple-system, sans-serif" font-size="14" font-weight="900">3</text>
      <text x="54" y="442.3" fill="#092f4e" font-family="system-ui, -apple-system, sans-serif" font-size="15" font-weight="850">Königswinter</text>
      <text x="54" y="460.3" fill="#4d6779" font-family="system-ui, -apple-system, sans-serif" font-size="12.5">山側への分岐</text>
      <line x1="20" y1="465.9" x2="460" y2="465.9" stroke="#d7c8a7" stroke-width="1"/>
    </g>
<g aria-hidden="true">
      <circle cx="30" cy="493.4" r="14" fill="#092f55"/>
      <text x="30" y="498.4" text-anchor="middle" fill="#fff" font-family="system-ui, -apple-system, sans-serif" font-size="14" font-weight="900">4</text>
      <text x="54" y="491.4" fill="#092f4e" font-family="system-ui, -apple-system, sans-serif" font-size="15" font-weight="850">Linz am Rhein</text>
      <text x="54" y="509.4" fill="#4d6779" font-family="system-ui, -apple-system, sans-serif" font-size="12.5">短い町歩き</text>
      <line x1="20" y1="515" x2="460" y2="515" stroke="#d7c8a7" stroke-width="1"/>
    </g>
<g aria-hidden="true">
      <circle cx="30" cy="542.6" r="14" fill="#092f55"/>
      <text x="30" y="547.6" text-anchor="middle" fill="#fff" font-family="system-ui, -apple-system, sans-serif" font-size="14" font-weight="900">5</text>
      <text x="54" y="540.6" fill="#092f4e" font-family="system-ui, -apple-system, sans-serif" font-size="15" font-weight="850">Koblenz</text>
      <text x="54" y="558.6" fill="#4d6779" font-family="system-ui, -apple-system, sans-serif" font-size="12.5">中流域の接続点</text>
      <line x1="20" y1="564.1" x2="460" y2="564.1" stroke="#d7c8a7" stroke-width="1"/>
    </g>
<g aria-hidden="true">
      <circle cx="30" cy="591.7" r="14" fill="#092f55"/>
      <text x="30" y="596.7" text-anchor="middle" fill="#fff" font-family="system-ui, -apple-system, sans-serif" font-size="14" font-weight="900">6</text>
      <text x="54" y="589.7" fill="#092f4e" font-family="system-ui, -apple-system, sans-serif" font-size="15" font-weight="850">St. Goar</text>
      <text x="54" y="607.7" fill="#4d6779" font-family="system-ui, -apple-system, sans-serif" font-size="12.5">Bacharachの北</text>
      <line x1="20" y1="613.3" x2="460" y2="613.3" stroke="#d7c8a7" stroke-width="1"/>
    </g>
<g aria-hidden="true">
      <circle cx="30" cy="640.9" r="14" fill="#092f55"/>
      <text x="30" y="645.9" text-anchor="middle" fill="#fff" font-family="system-ui, -apple-system, sans-serif" font-size="14" font-weight="900">7</text>
      <text x="54" y="638.9" fill="#092f4e" font-family="system-ui, -apple-system, sans-serif" font-size="15" font-weight="850">Bacharach</text>
      <text x="54" y="656.9" fill="#4d6779" font-family="system-ui, -apple-system, sans-serif" font-size="12.5">南側の候補</text>
      <line x1="20" y1="662.4" x2="460" y2="662.4" stroke="#d7c8a7" stroke-width="1"/>
    </g>
  <text x="24" y="719" fill="#526c7f" font-family="system-ui, -apple-system, sans-serif" font-size="12">AI背景／OSM地点確認 2026-07-22／縮尺・道路形状は不正確</text>
</svg>
