<svg xmlns="http://www.w3.org/2000/svg" width="820" height="520" viewBox="0 0 820 520" role="img" aria-labelledby="title desc">
  <title id="title">ストラスブール旧市街の基本ルート</title>
  <desc id="desc">Gare CentraleまたはP+RからPetite France、Grande Île、Cathédrale周辺、川沿いと帰路へ進む順序。背景街並みはAI生成の編集イメージ。番号付き地点の相対位置はOpenStreetMapで確認。実線は基本ルート、破線は任意の分岐。縮尺と道路形状は正確ではありません。</desc>
  <defs>
    <marker id="route-arrow" viewBox="0 0 10 10" refX="8" refY="5" markerWidth="7" markerHeight="7" orient="auto-start-reverse"><path d="M0 0 10 5 0 10z" fill="#075b9a"/></marker>
    <marker id="optional-arrow" viewBox="0 0 10 10" refX="8" refY="5" markerWidth="7" markerHeight="7" orient="auto-start-reverse"><path d="M0 0 10 5 0 10z" fill="#147d75"/></marker>
    <filter id="card-shadow" x="-15%" y="-20%" width="130%" height="150%"><feDropShadow dx="0" dy="3" stdDeviation="3" flood-color="#12324a" flood-opacity="0.15"/></filter>
    <clipPath id="map-clip"><rect x="1" y="1" width="818" height="518" rx="20"/></clipPath>
    <clipPath id="mobile-map-clip"><path d="M19 1h442a18 18 0 0 1 18 18v299H1V19A18 18 0 0 1 19 1z"/></clipPath>
    <linearGradient id="map-wash" x1="0" y1="0" x2="0" y2="1"><stop offset="0" stop-color="#fffaf0" stop-opacity="0.03"/><stop offset="1" stop-color="#fffaf0" stop-opacity="0.16"/></linearGradient>
  </defs>
  <g clip-path="url(#map-clip)">
    <image href="/assets/images/living/routes/strasbourg-weekend-trip-illustrated-map.webp" x="1" y="1" width="818" height="518" preserveAspectRatio="xMidYMid slice"/>
    <rect x="1" y="1" width="818" height="518" fill="url(#map-wash)"/>
  </g>
  <rect x="1" y="1" width="818" height="518" rx="20" fill="none" stroke="#173f68" stroke-width="2"/>
  <g aria-hidden="true">
    <path d="M295.3 294.8 L468.8 408.6" fill="none" stroke="#fffaf0" stroke-opacity="0.92" stroke-width="12" stroke-linecap="round"/>
    <path d="M295.3 294.8 L468.8 408.6" fill="none" stroke="#075b9a" stroke-width="7" stroke-linecap="round" marker-end="url(#route-arrow)"/>
    <path d="M468.8 408.6 L548.2 352.3" fill="none" stroke="#fffaf0" stroke-opacity="0.92" stroke-width="12" stroke-linecap="round"/>
    <path d="M468.8 408.6 L548.2 352.3" fill="none" stroke="#075b9a" stroke-width="7" stroke-linecap="round" marker-end="url(#route-arrow)"/>
    <path d="M548.2 352.3 L655.2 393.5" fill="none" stroke="#fffaf0" stroke-opacity="0.92" stroke-width="12" stroke-linecap="round"/>
    <path d="M548.2 352.3 L655.2 393.5" fill="none" stroke="#075b9a" stroke-width="7" stroke-linecap="round" marker-end="url(#route-arrow)"/>
    <path d="M655.2 393.5 L710 430" fill="none" stroke="#fffaf0" stroke-opacity="0.92" stroke-width="12" stroke-linecap="round"/>
    <path d="M655.2 393.5 L710 430" fill="none" stroke="#075b9a" stroke-width="7" stroke-linecap="round" marker-end="url(#route-arrow)"/>
    <path d="M110 120 L468.8 408.6" fill="none" stroke="#fffaf0" stroke-opacity="0.92" stroke-width="9" stroke-dasharray="12 10" stroke-linecap="round"/>
    <path d="M110 120 L468.8 408.6" fill="none" stroke="#147d75" stroke-width="5" stroke-dasharray="12 10" stroke-linecap="round" marker-end="url(#optional-arrow)"/><g filter="url(#card-shadow)">
      <circle cx="295.3" cy="294.8" r="17" fill="#fffaf0" fill-opacity="0.95"/>
      <circle cx="295.3" cy="294.8" r="14" fill="#092f55"/>
      <text x="295.3" y="299.9" text-anchor="middle" fill="#ffffff" font-family="system-ui, -apple-system, sans-serif" font-size="15" font-weight="900">1</text>
    </g>
<g filter="url(#card-shadow)">
      <circle cx="110" cy="120" r="17" fill="#fffaf0" fill-opacity="0.95"/>
      <circle cx="110" cy="120" r="14" fill="#147d75"/>
      <text x="110" y="125.1" text-anchor="middle" fill="#ffffff" font-family="system-ui, -apple-system, sans-serif" font-size="15" font-weight="900">2</text>
    </g>
<g filter="url(#card-shadow)">
      <circle cx="468.8" cy="408.6" r="17" fill="#fffaf0" fill-opacity="0.95"/>
      <circle cx="468.8" cy="408.6" r="14" fill="#092f55"/>
      <text x="468.8" y="413.7" text-anchor="middle" fill="#ffffff" font-family="system-ui, -apple-system, sans-serif" font-size="15" font-weight="900">3</text>
    </g>
<g filter="url(#card-shadow)">
      <circle cx="548.2" cy="352.3" r="17" fill="#fffaf0" fill-opacity="0.95"/>
      <circle cx="548.2" cy="352.3" r="14" fill="#092f55"/>
      <text x="548.2" y="357.4" text-anchor="middle" fill="#ffffff" font-family="system-ui, -apple-system, sans-serif" font-size="15" font-weight="900">4</text>
    </g>
<g filter="url(#card-shadow)">
      <circle cx="655.2" cy="393.5" r="17" fill="#fffaf0" fill-opacity="0.95"/>
      <circle cx="655.2" cy="393.5" r="14" fill="#092f55"/>
      <text x="655.2" y="398.6" text-anchor="middle" fill="#ffffff" font-family="system-ui, -apple-system, sans-serif" font-size="15" font-weight="900">5</text>
    </g>
<g filter="url(#card-shadow)">
      <circle cx="710" cy="430" r="17" fill="#fffaf0" fill-opacity="0.95"/>
      <circle cx="710" cy="430" r="14" fill="#092f55"/>
      <text x="710" y="435.1" text-anchor="middle" fill="#ffffff" font-family="system-ui, -apple-system, sans-serif" font-size="15" font-weight="900">6</text>
    </g><path d="M295.3 294.8 L228 420" stroke="#fffaf0" stroke-width="5" stroke-linecap="round"/>
    <path d="M295.3 294.8 L228 420" stroke="#173f68" stroke-width="2" stroke-linecap="round"/>
    <g filter="url(#card-shadow)">
      <rect x="18" y="396" width="210" height="48" rx="9" fill="#fffaf0" fill-opacity="0.96" stroke="#173f68" stroke-width="1.5"/>
      <rect x="25" y="404" width="28" height="32" rx="7" fill="#173f68"/>
      <text x="39" y="426" text-anchor="middle" fill="#fff" font-family="system-ui, -apple-system, sans-serif" font-size="14" font-weight="900">1</text>
      <text x="61" y="416" fill="#092f4e" font-family="system-ui, -apple-system, sans-serif" font-size="13.5" font-weight="850">Gare Centrale</text>
      <text x="61" y="433" fill="#4d6779" font-family="system-ui, -apple-system, sans-serif" font-size="11.5">鉄道の入口</text>
    </g>
<path d="M110 120 L228 126" stroke="#fffaf0" stroke-width="5" stroke-linecap="round"/>
    <path d="M110 120 L228 126" stroke="#147d75" stroke-width="2" stroke-linecap="round"/>
    <g filter="url(#card-shadow)">
      <rect x="18" y="102" width="210" height="48" rx="9" fill="#edf9f3" fill-opacity="0.96" stroke="#147d75" stroke-width="1.5"/>
      <rect x="25" y="110" width="28" height="32" rx="7" fill="#147d75"/>
      <text x="39" y="132" text-anchor="middle" fill="#fff" font-family="system-ui, -apple-system, sans-serif" font-size="14" font-weight="900">2</text>
      <text x="61" y="122" fill="#092f4e" font-family="system-ui, -apple-system, sans-serif" font-size="13.5" font-weight="850">P+R</text>
      <text x="61" y="139" fill="#4d6779" font-family="system-ui, -apple-system, sans-serif" font-size="11.5">車の入口</text>
    </g>
<path d="M468.8 408.6 L592 322" stroke="#fffaf0" stroke-width="5" stroke-linecap="round"/>
    <path d="M468.8 408.6 L592 322" stroke="#173f68" stroke-width="2" stroke-linecap="round"/>
    <g filter="url(#card-shadow)">
      <rect x="592" y="298" width="210" height="48" rx="9" fill="#fffaf0" fill-opacity="0.96" stroke="#173f68" stroke-width="1.5"/>
      <rect x="599" y="306" width="28" height="32" rx="7" fill="#173f68"/>
      <text x="613" y="328" text-anchor="middle" fill="#fff" font-family="system-ui, -apple-system, sans-serif" font-size="14" font-weight="900">3</text>
      <text x="635" y="318" fill="#092f4e" font-family="system-ui, -apple-system, sans-serif" font-size="13.5" font-weight="850">Petite France</text>
      <text x="635" y="335" fill="#4d6779" font-family="system-ui, -apple-system, sans-serif" font-size="11.5">旧市街へ</text>
    </g>
<path d="M548.2 352.3 L592 126" stroke="#fffaf0" stroke-width="5" stroke-linecap="round"/>
    <path d="M548.2 352.3 L592 126" stroke="#173f68" stroke-width="2" stroke-linecap="round"/>
    <g filter="url(#card-shadow)">
      <rect x="592" y="102" width="210" height="48" rx="9" fill="#fffaf0" fill-opacity="0.96" stroke="#173f68" stroke-width="1.5"/>
      <rect x="599" y="110" width="28" height="32" rx="7" fill="#173f68"/>
      <text x="613" y="132" text-anchor="middle" fill="#fff" font-family="system-ui, -apple-system, sans-serif" font-size="14" font-weight="900">4</text>
      <text x="635" y="122" fill="#092f4e" font-family="system-ui, -apple-system, sans-serif" font-size="13.5" font-weight="850">Grande Île</text>
      <text x="635" y="139" fill="#4d6779" font-family="system-ui, -apple-system, sans-serif" font-size="11.5">中心部</text>
    </g>
<path d="M655.2 393.5 L592 224" stroke="#fffaf0" stroke-width="5" stroke-linecap="round"/>
    <path d="M655.2 393.5 L592 224" stroke="#173f68" stroke-width="2" stroke-linecap="round"/>
    <g filter="url(#card-shadow)">
      <rect x="592" y="200" width="210" height="48" rx="9" fill="#fffaf0" fill-opacity="0.96" stroke="#173f68" stroke-width="1.5"/>
      <rect x="599" y="208" width="28" height="32" rx="7" fill="#173f68"/>
      <text x="613" y="230" text-anchor="middle" fill="#fff" font-family="system-ui, -apple-system, sans-serif" font-size="14" font-weight="900">5</text>
      <text x="635" y="220" fill="#092f4e" font-family="system-ui, -apple-system, sans-serif" font-size="13.5" font-weight="850">Cathédrale周辺</text>
      <text x="635" y="237" fill="#4d6779" font-family="system-ui, -apple-system, sans-serif" font-size="11.5">予約を確認</text>
    </g>
<path d="M710 430 L592 420" stroke="#fffaf0" stroke-width="5" stroke-linecap="round"/>
    <path d="M710 430 L592 420" stroke="#173f68" stroke-width="2" stroke-linecap="round"/>
    <g filter="url(#card-shadow)">
      <rect x="592" y="396" width="210" height="48" rx="9" fill="#fffaf0" fill-opacity="0.96" stroke="#173f68" stroke-width="1.5"/>
      <rect x="599" y="404" width="28" height="32" rx="7" fill="#173f68"/>
      <text x="613" y="426" text-anchor="middle" fill="#fff" font-family="system-ui, -apple-system, sans-serif" font-size="14" font-weight="900">6</text>
      <text x="635" y="416" fill="#092f4e" font-family="system-ui, -apple-system, sans-serif" font-size="13.5" font-weight="850">川沿い / 帰路</text>
      <text x="635" y="433" fill="#4d6779" font-family="system-ui, -apple-system, sans-serif" font-size="11.5">最後の調整</text>
    </g></g>
  <g aria-hidden="true" filter="url(#card-shadow)">
    <rect x="14" y="14" width="550" height="72" rx="12" fill="#fffaf0" fill-opacity="0.95" stroke="#173f68" stroke-width="2"/>
    <text x="30" y="43" fill="#092f55" font-family="system-ui, -apple-system, sans-serif" font-size="22" font-weight="900">ストラスブール旧市街 基本ルート</text>
    <text x="31" y="67" fill="#405e72" font-family="system-ui, -apple-system, sans-serif" font-size="13" font-weight="800" letter-spacing="1.2">ILLUSTRATED ROUTE MAP</text>
  </g>
  <g aria-hidden="true">
    <circle cx="770" cy="48" r="27" fill="#fffaf0" fill-opacity="0.94" stroke="#173f68" stroke-width="2"/>
    <path d="M770 26 L764 52 L770 49 L776 52 Z" fill="#092f55"/>
    <text x="770" y="16" text-anchor="middle" fill="#092f55" font-family="system-ui, -apple-system, sans-serif" font-size="14" font-weight="900">N</text>
  </g>
  <g transform="translate(20 478)" aria-hidden="true">
    <rect x="-8" y="-18" width="443" height="28" rx="8" fill="#fffaf0" fill-opacity="0.94"/>
    <line x1="0" y1="-4" x2="34" y2="-4" stroke="#092f55" stroke-width="6" stroke-linecap="round"/>
    <text x="43" y="1" fill="#294b66" font-family="system-ui, -apple-system, sans-serif" font-size="12">基本</text>
    <line x1="84" y1="-4" x2="118" y2="-4" stroke="#147d75" stroke-width="5" stroke-dasharray="8 6" stroke-linecap="round"/>
    <text x="127" y="1" fill="#294b66" font-family="system-ui, -apple-system, sans-serif" font-size="12">任意</text>
    <text x="178" y="1" fill="#526c7f" font-family="system-ui, -apple-system, sans-serif" font-size="12">AI背景／OSM地点確認 2026-07-22／縮尺不正確</text>
  </g>
</svg>
