<svg xmlns="http://www.w3.org/2000/svg" width="480" height="740" viewBox="0 0 480 740" role="img" aria-labelledby="title desc">
  <title id="title">ワルシャワ中心部の基本ルート（モバイル）</title>
  <desc id="desc">Warszawa Centralnaと宿からRoyal Route、Old Townへ進み2日目に博物館またはVistulaとPowiśleを選ぶ順序。上部は北向きの位置関係、下部は番号順の地点一覧。背景街並みはAI生成の編集イメージで、地点はOpenStreetMapで確認しています。</desc>
  <defs>
    <marker id="route-arrow" viewBox="0 0 10 10" refX="8" refY="5" markerWidth="7" markerHeight="7" orient="auto-start-reverse"><path d="M0 0 10 5 0 10z" fill="#075b9a"/></marker>
    <marker id="optional-arrow" viewBox="0 0 10 10" refX="8" refY="5" markerWidth="7" markerHeight="7" orient="auto-start-reverse"><path d="M0 0 10 5 0 10z" fill="#147d75"/></marker>
    <filter id="card-shadow" x="-15%" y="-20%" width="130%" height="150%"><feDropShadow dx="0" dy="3" stdDeviation="3" flood-color="#12324a" flood-opacity="0.15"/></filter>
    <clipPath id="map-clip"><rect x="1" y="1" width="818" height="518" rx="20"/></clipPath>
    <clipPath id="mobile-map-clip"><path d="M19 1h442a18 18 0 0 1 18 18v299H1V19A18 18 0 0 1 19 1z"/></clipPath>
    <linearGradient id="map-wash" x1="0" y1="0" x2="0" y2="1"><stop offset="0" stop-color="#fffaf0" stop-opacity="0.03"/><stop offset="1" stop-color="#fffaf0" stop-opacity="0.16"/></linearGradient>
  </defs>
  <g clip-path="url(#mobile-map-clip)">
    <image href="/assets/images/living/routes/warsaw-weekend-trip-illustrated-map.webp" x="1" y="1" width="478" height="318" preserveAspectRatio="xMidYMid slice"/>
    <rect x="1" y="1" width="478" height="318" fill="url(#map-wash)"/>
  </g>
  <rect x="1" y="1" width="478" height="738" rx="18" fill="none" stroke="#173f68" stroke-width="2"/>
  <g aria-hidden="true">
    <path d="M160.2 281.9 L361.3 268.3" fill="none" stroke="#fffaf0" stroke-opacity="0.92" stroke-width="12" stroke-linecap="round"/>
    <path d="M160.2 281.9 L361.3 268.3" fill="none" stroke="#075b9a" stroke-width="7" stroke-linecap="round" marker-end="url(#route-arrow)"/>
    <path d="M361.3 268.3 L253.5 94.1" fill="none" stroke="#fffaf0" stroke-opacity="0.92" stroke-width="12" stroke-linecap="round"/>
    <path d="M361.3 268.3 L253.5 94.1" fill="none" stroke="#075b9a" stroke-width="7" stroke-linecap="round" marker-end="url(#route-arrow)"/>
    <path d="M253.5 94.1 L52.3 97.9" fill="none" stroke="#fffaf0" stroke-opacity="0.92" stroke-width="9" stroke-dasharray="12 10" stroke-linecap="round"/>
    <path d="M253.5 94.1 L52.3 97.9" fill="none" stroke="#147d75" stroke-width="5" stroke-dasharray="12 10" stroke-linecap="round" marker-end="url(#optional-arrow)"/>
    <path d="M253.5 94.1 L427.7 153.4" fill="none" stroke="#fffaf0" stroke-opacity="0.92" stroke-width="9" stroke-dasharray="12 10" stroke-linecap="round"/>
    <path d="M253.5 94.1 L427.7 153.4" fill="none" stroke="#147d75" stroke-width="5" stroke-dasharray="12 10" stroke-linecap="round" marker-end="url(#optional-arrow)"/><g filter="url(#card-shadow)">
      <circle cx="160.2" cy="281.9" r="14" fill="#fffaf0" fill-opacity="0.95"/>
      <circle cx="160.2" cy="281.9" r="11" fill="#092f55"/>
      <text x="160.2" y="286" text-anchor="middle" fill="#ffffff" font-family="system-ui, -apple-system, sans-serif" font-size="12" font-weight="900">1</text>
    </g>
<g filter="url(#card-shadow)">
      <circle cx="361.3" cy="268.3" r="14" fill="#fffaf0" fill-opacity="0.95"/>
      <circle cx="361.3" cy="268.3" r="11" fill="#092f55"/>
      <text x="361.3" y="272.4" text-anchor="middle" fill="#ffffff" font-family="system-ui, -apple-system, sans-serif" font-size="12" font-weight="900">2</text>
    </g>
<g filter="url(#card-shadow)">
      <circle cx="253.5" cy="94.1" r="14" fill="#fffaf0" fill-opacity="0.95"/>
      <circle cx="253.5" cy="94.1" r="11" fill="#092f55"/>
      <text x="253.5" y="98.2" text-anchor="middle" fill="#ffffff" font-family="system-ui, -apple-system, sans-serif" font-size="12" font-weight="900">3</text>
    </g>
<g filter="url(#card-shadow)">
      <circle cx="52.3" cy="97.9" r="14" fill="#fffaf0" fill-opacity="0.95"/>
      <circle cx="52.3" cy="97.9" r="11" fill="#147d75"/>
      <text x="52.3" y="102" text-anchor="middle" fill="#ffffff" font-family="system-ui, -apple-system, sans-serif" font-size="12" font-weight="900">4</text>
    </g>
<g filter="url(#card-shadow)">
      <circle cx="427.7" cy="153.4" r="14" fill="#fffaf0" fill-opacity="0.95"/>
      <circle cx="427.7" cy="153.4" r="11" fill="#147d75"/>
      <text x="427.7" y="157.5" text-anchor="middle" fill="#ffffff" font-family="system-ui, -apple-system, sans-serif" font-size="12" font-weight="900">5</text>
    </g></g>
  <g aria-hidden="true" filter="url(#card-shadow)">
    <rect x="12" y="12" width="400" height="58" rx="11" fill="#fffaf0" fill-opacity="0.96" stroke="#173f68" stroke-width="2"/>
    <text x="25" y="37" fill="#092f55" font-family="system-ui, -apple-system, sans-serif" font-size="18" font-weight="900">ワルシャワ中心部 基本ルート</text>
    <text x="26" y="57" fill="#405e72" font-family="system-ui, -apple-system, sans-serif" font-size="10.5" font-weight="800" letter-spacing="1">ILLUSTRATED ROUTE MAP</text>
  </g>
  <g aria-hidden="true">
    <circle cx="442" cy="40" r="22" fill="#fffaf0" fill-opacity="0.94" stroke="#173f68" stroke-width="2"/>
    <path d="M442 23 L436 44 L442 41 L448 44 Z" fill="#092f55"/>
    <text x="442" y="13" text-anchor="middle" fill="#092f55" font-family="system-ui, -apple-system, sans-serif" font-size="14" font-weight="900">N</text>
  </g>
  <rect x="1" y="318" width="478" height="420" fill="#fffaf0" fill-opacity="0.97"/>
  <g aria-hidden="true">
      <circle cx="30" cy="346" r="14" fill="#092f55"/>
      <text x="30" y="351" text-anchor="middle" fill="#fff" font-family="system-ui, -apple-system, sans-serif" font-size="14" font-weight="900">1</text>
      <text x="54" y="344" fill="#092f4e" font-family="system-ui, -apple-system, sans-serif" font-size="15" font-weight="850">Warszawa Centralna / 宿</text>
      <text x="54" y="362" fill="#4d6779" font-family="system-ui, -apple-system, sans-serif" font-size="12.5">到着</text>
      <line x1="20" y1="368" x2="460" y2="368" stroke="#d7c8a7" stroke-width="1"/>
    </g>
<g aria-hidden="true">
      <circle cx="30" cy="396" r="14" fill="#092f55"/>
      <text x="30" y="401" text-anchor="middle" fill="#fff" font-family="system-ui, -apple-system, sans-serif" font-size="14" font-weight="900">2</text>
      <text x="54" y="394" fill="#092f4e" font-family="system-ui, -apple-system, sans-serif" font-size="15" font-weight="850">Royal Route</text>
      <text x="54" y="412" fill="#4d6779" font-family="system-ui, -apple-system, sans-serif" font-size="12.5">北へ歩く</text>
      <line x1="20" y1="418" x2="460" y2="418" stroke="#d7c8a7" stroke-width="1"/>
    </g>
<g aria-hidden="true">
      <circle cx="30" cy="446" r="14" fill="#092f55"/>
      <text x="30" y="451" text-anchor="middle" fill="#fff" font-family="system-ui, -apple-system, sans-serif" font-size="14" font-weight="900">3</text>
      <text x="54" y="444" fill="#092f4e" font-family="system-ui, -apple-system, sans-serif" font-size="15" font-weight="850">Old Town</text>
      <text x="54" y="462" fill="#4d6779" font-family="system-ui, -apple-system, sans-serif" font-size="12.5">歴史の一日</text>
      <line x1="20" y1="468" x2="460" y2="468" stroke="#d7c8a7" stroke-width="1"/>
    </g>
<g aria-hidden="true">
      <circle cx="30" cy="496" r="14" fill="#147d75"/>
      <text x="30" y="501" text-anchor="middle" fill="#fff" font-family="system-ui, -apple-system, sans-serif" font-size="14" font-weight="900">4</text>
      <text x="54" y="494" fill="#092f4e" font-family="system-ui, -apple-system, sans-serif" font-size="15" font-weight="850">博物館</text>
      <text x="54" y="512" fill="#4d6779" font-family="system-ui, -apple-system, sans-serif" font-size="12.5">2日目A（任意）</text>
      <line x1="20" y1="518" x2="460" y2="518" stroke="#d7c8a7" stroke-width="1"/>
    </g>
<g aria-hidden="true">
      <circle cx="30" cy="546" r="14" fill="#147d75"/>
      <text x="30" y="551" text-anchor="middle" fill="#fff" font-family="system-ui, -apple-system, sans-serif" font-size="14" font-weight="900">5</text>
      <text x="54" y="544" fill="#092f4e" font-family="system-ui, -apple-system, sans-serif" font-size="15" font-weight="850">Vistula / Powiśle</text>
      <text x="54" y="562" fill="#4d6779" font-family="system-ui, -apple-system, sans-serif" font-size="12.5">2日目B（任意）</text>
      <line x1="20" y1="568" x2="460" y2="568" stroke="#d7c8a7" stroke-width="1"/>
    </g>
  <text x="24" y="719" fill="#526c7f" font-family="system-ui, -apple-system, sans-serif" font-size="12">AI背景／OSM地点確認 2026-07-22／縮尺・道路形状は不正確</text>
</svg>
