<svg xmlns="http://www.w3.org/2000/svg" width="1200" height="675" viewBox="0 0 1200 675" role="img" aria-labelledby="title desc">
  <title id="title">J-Connect Germany article image placeholder</title>
  <desc id="desc">A branded light blue and white placeholder for J-Connect Germany articles.</desc>
  <defs>
    <linearGradient id="bg" x1="0" y1="0" x2="1" y2="1">
      <stop offset="0" stop-color="#eef7ff"/>
      <stop offset="1" stop-color="#ffffff"/>
    </linearGradient>
    <linearGradient id="panel" x1="0" y1="0" x2="1" y2="1">
      <stop offset="0" stop-color="#ffffff"/>
      <stop offset="1" stop-color="#e8f4ff"/>
    </linearGradient>
  </defs>
  <rect width="1200" height="675" fill="url(#bg)"/>
  <rect x="64" y="56" width="1072" height="563" rx="30" fill="#ffffff" stroke="#bfd8f1" stroke-width="3"/>
  <rect x="128" y="118" width="496" height="320" rx="22" fill="url(#panel)" stroke="#c9def3" stroke-width="3"/>
  <path d="M170 365l108-118 86 90 62-66 156 166H170z" fill="#b6dcff"/>
  <circle cx="474" cy="205" r="42" fill="#ffd45a"/>
  <rect x="686" y="157" width="338" height="30" rx="15" fill="#0067c9" opacity=".88"/>
  <rect x="686" y="219" width="404" height="18" rx="9" fill="#8fbde8"/>
  <rect x="686" y="261" width="356" height="18" rx="9" fill="#aacded"/>
  <rect x="686" y="303" width="292" height="18" rx="9" fill="#c3ddf3"/>
  <rect x="686" y="380" width="156" height="46" rx="12" fill="#eaf4ff" stroke="#bfd8f1" stroke-width="2"/>
  <rect x="866" y="380" width="136" height="46" rx="12" fill="#eaf4ff" stroke="#bfd8f1" stroke-width="2"/>
  <text x="128" y="520" fill="#00366d" font-family="Inter, Arial, sans-serif" font-size="50" font-weight="800" letter-spacing="0">J-CONNECT</text>
  <text x="128" y="568" fill="#0067c9" font-family="Inter, Arial, sans-serif" font-size="34" font-weight="700" letter-spacing="0">GERMANY</text>
  <text x="686" y="520" fill="#355f86" font-family="Inter, Arial, sans-serif" font-size="28" font-weight="700" letter-spacing="0">Article image coming soon</text>
</svg>

